<svg xmlns="http://www.w3.org/2000/svg" width="400" height="400" viewBox="0 0 64 64">
  <defs>
    <linearGradient id="wisp" x1="0" y1="0" x2="0" y2="1">
      <stop offset="0" stop-color="#fde68a"/>
      <stop offset=".55" stop-color="#fbbf24"/>
      <stop offset="1" stop-color="#f59e0b"/>
    </linearGradient>
  </defs>
  <rect width="64" height="64" rx="15" fill="#1d1917"/>
  <g transform="translate(6.5 9) scale(.88)">
    <path d="M8 46q5 7 10.5 0t10.5 0 10.5 0 10.5 0V34H8Z" fill="url(#wisp)"/>
    <path d="M29 6c11.6 0 21 9 21 20.5V40H8V26.5C8 15 17.4 6 29 6Z" fill="url(#wisp)"/>
    <path d="M29 6c11.6 0 21 9 21 20.5V30c-3-9-11-15-21-15s-18 6-21 15v-3.5C8 15 17.4 6 29 6Z" fill="#fffbeb" fill-opacity=".45"/>
    <ellipse cx="21" cy="27" rx="4.2" ry="5.2" fill="#1c1409"/>
    <ellipse cx="37" cy="27" rx="4.2" ry="5.2" fill="#1c1409"/>
    <circle cx="22.6" cy="25" r="1.4" fill="#fffbeb"/>
    <circle cx="38.6" cy="25" r="1.4" fill="#fffbeb"/>
  </g>
</svg>
